# ProBuilder 6.0.1
# https://unity3d.com/unity/features/worldbuilding/probuilder
# 20.04.2024 15:45:22

mtllib ./Noise_mark.mtl
o Noise mark

g Cube
v -0.2661398 -0.1377412 0.537053
v -0.4591389 -0.1377412 -0.2794464
v -0.2661398 0.1377414 0.537053
v -0.4591389 0.1377414 -0.2794464
v -0.2591389 -0.1377412 -0.4794464
v 0.5042782 -0.1377412 -0.274826
v -0.2591389 0.1377414 -0.4794464
v 0.5042782 0.1377414 -0.274826
v 0.5588493 -0.1377412 -0.09358215
v 0.5588493 0.1377414 -0.09358215
v -0.07871147 -0.1377412 0.5902681
v -0.07871147 0.1377414 0.5902681

vt 0.8 0
vt 0.2 0
vt 0.8 0.2754827
vt 0.2 0.2754827
vt 0.6270617 0.3622588
vt 0.6270617 0.6377414
vt 0.3442191 0.3622588
vt 0.3442191 0.6377414
vt 1.026814 0
vt 1.026814 0.2754827
vt 0.01260044 0
vt 0.01260044 0.2754827
vt 0.6177692 0.3622588
vt 0.6177692 0.6377414
vt 0.4284881 0.3622588
vt 0.4284881 0.6377414
vt 0.390663 0.6377414
vt 0.390663 0.3622588
vt 0.5854995 0.6377414
vt 0.5854995 0.3622588
vt -0.05884933 0.4064178
vt 0.5787115 1.090268
vt 0.7661398 1.037053
vt 0.9591389 0.2205536
vt 0.7591389 0.02055359
vt -0.004278183 0.225174
vt 1.058849 0.4064178
vt 1.004278 0.225174
vt 0.2408611 0.02055359
vt 0.04086113 0.2205536
vt 0.2338602 1.037053
vt 0.4212885 1.090268

vn -0.9731824 0 0.2300348
vn 0.2588938 0 -0.9659058
vn -0.7071068 0 -0.7071068
vn 0.7314283 0 0.6819183
vn 0.9575379 0 -0.2883074
vn -0.273127 0 0.961978
vn 0 1 0
vn 0 -1 0

usemtl ProBuilderDefault
f 4/24/7 3/23/7 12/22/7
f 4/24/7 12/22/7 7/25/7
f 10/21/7 8/26/7 7/25/7
f 7/25/7 12/22/7 10/21/7
f 9/27/8 11/32/8 5/29/8
f 5/29/8 6/28/8 9/27/8
f 5/29/8 11/32/8 2/30/8
f 11/32/8 1/31/8 2/30/8
f 4/4/1 2/2/1 1/1/1
f 1/1/1 3/3/1 4/4/1
f 8/4/2 6/2/2 5/1/2
f 5/1/2 7/3/2 8/4/2
f 5/7/3 2/5/3 4/6/3
f 4/6/3 7/8/3 5/7/3
f 11/11/4 9/9/4 10/10/4
f 10/10/4 12/12/4 11/11/4
f 9/15/5 6/13/5 8/14/5
f 8/14/5 10/16/5 9/15/5
f 12/19/6 3/17/6 1/18/6
f 1/18/6 11/20/6 12/19/6

