# ProBuilder 6.0.1
# https://unity3d.com/unity/features/worldbuilding/probuilder
# 20.04.2024 15:34:59

mtllib ./room_shape.mtl
o room shape

g Cylinder
v -2.5 0 0
v -2.5 0.5 0
v -1.25 0 2.165064
v -1.25 0.5 2.165064
v 1.25 0 2.165063
v 1.25 0.5 2.165063
v 2.5 0 -2.384186E-07
v 2.5 0.5 -2.384186E-07
v 1.25 0 -2.165064
v 1.25 0.5 -2.165064
v -1.25 0 -2.165064
v -1.25 0.5 -2.165064
v 0 0 0
v 0 0.5 0

vt -1.25 0
vt -1.25 0.5
vt 1.25 0
vt 1.25 0.5
vt 1.25 0
vt 1.25 0.5
vt -1.25 0
vt -1.25 0.5
vt -2.5 0
vt 0 0
vt -1.25 2.165064
vt 2.5 0
vt 1.25 2.165064
vt 1.25 -2.165064
vt -1.25 -2.165064

vn -1 0 0
vn -0.5 0 0.8660254
vn 0.5000001 0 0.8660254
vn 1 0 -6.882551E-08
vn 0.5 0 -0.8660254
vn -0.5 0 -0.8660254
vn 0 -1 0
vn 0 1 0

usemtl Lit
f 1/9/7 13/10/7 3/11/7
f 3/11/7 13/10/7 5/13/7
f 5/13/7 13/10/7 7/12/7
f 7/12/7 13/10/7 9/14/7
f 9/14/7 13/10/7 11/15/7
f 11/15/7 13/10/7 1/9/7
f 4/13/8 14/10/8 2/12/8
f 6/11/8 14/10/8 4/13/8
f 8/9/8 14/10/8 6/11/8
f 10/15/8 14/10/8 8/9/8
f 12/14/8 14/10/8 10/15/8
f 2/12/8 14/10/8 12/14/8
f 4/4/2 2/2/1 1/1/1
f 1/1/1 3/3/2 4/4/2
f 6/6/3 4/2/2 3/1/2
f 3/1/2 5/5/3 6/6/3
f 8/4/4 6/2/3 5/1/3
f 5/1/3 7/3/4 8/4/4
f 10/4/5 8/2/4 7/1/4
f 7/1/4 9/3/5 10/4/5
f 12/6/6 10/8/5 9/7/5
f 9/7/5 11/5/6 12/6/6
f 2/4/1 12/2/6 11/1/6
f 11/1/6 1/3/1 2/4/1

