# Blender v2.79 (sub 0) OBJ File: 'Nemesis_Model_door2.0.blend'
# www.blender.org
o Broken_CUpath32.002
v -0.465260 0.907663 -0.092130
v -0.296456 0.480732 0.092131
v 0.465488 0.909710 -0.092130
v 0.465488 0.000000 -0.092130
v -0.465231 0.000000 -0.092130
v -0.465488 0.000000 0.092131
v 0.465488 0.909710 0.092131
v -0.352930 0.681025 0.092131
v 0.465488 0.000000 0.092131
v -0.305728 0.267154 0.092131
v -0.465260 0.907663 0.092131
v 0.172702 0.052124 0.092131
v 0.449087 0.909198 0.092131
v -0.193623 0.053577 0.092131
v -0.360589 1.013223 0.092131
v -0.393033 0.907887 0.092131
v 0.359570 0.480661 0.092131
v 0.332151 0.266392 0.092131
v 0.413011 0.694930 0.092131
v -0.296456 0.480732 -0.092130
v -0.003441 0.052822 0.092131
v -0.352930 0.681025 -0.092130
v -0.305728 0.267154 -0.092130
v 0.172702 0.052124 -0.092130
v 0.449087 0.909198 -0.092130
v -0.193623 0.053577 -0.092130
v -0.360589 1.013223 -0.092130
v -0.393033 0.907887 -0.092130
v 0.359570 0.480661 -0.092130
v 0.332151 0.266392 -0.092130
v 0.413011 0.694930 -0.092130
v -0.002136 0.052817 -0.092130
v -0.465277 0.841498 0.092131
v -0.465332 0.620934 0.092131
v -0.465389 0.393427 0.092131
v -0.465425 0.248475 0.092131
v -0.271172 0.000000 0.092131
v -0.243989 0.149532 0.092131
v 0.194744 0.000000 0.092131
v 0.465488 0.467039 0.092131
v 0.465488 0.689122 0.092131
v 0.465488 0.692154 -0.092130
v 0.465488 0.424307 -0.092130
v 0.176856 0.000000 -0.092130
v -0.195173 0.000000 -0.092130
v -0.465245 0.438104 -0.092130
v -0.465062 0.475653 -0.092130
v -0.465148 0.663312 -0.092130
vt 0.526550 0.158375
vt 0.360116 0.158417
vt 0.352134 0.240851
vt 0.894798 0.536287
vt 0.812366 0.439648
vt 0.812366 0.536287
vt 0.647501 0.518563
vt 0.729933 0.436771
vt 0.647501 0.416784
vt 0.729933 0.434353
vt 0.812366 0.434353
vt 0.812366 0.374924
vt 0.894798 0.739627
vt 0.812366 0.732286
vt 0.812366 0.739627
vt 0.231012 0.240882
vt 0.148579 0.240902
vt 0.148627 0.430724
vt 0.894798 0.439648
vt 0.812366 0.320162
vt 0.812366 0.529991
vt 0.729933 0.529991
vt 0.812366 0.623090
vt 0.812366 0.726154
vt 0.729933 0.775463
vt 0.812366 0.775463
vt 0.894798 0.635080
vt 0.812366 0.635080
vt 0.894798 0.241945
vt 0.812366 0.241361
vt 0.729933 0.623090
vt 0.894798 0.732286
vt 0.729933 0.326443
vt 0.729933 0.240777
vt 0.729933 0.713340
vt 0.647501 0.646836
vt 0.647501 0.713340
vt 0.290692 0.360042
vt 0.231064 0.449820
vt 0.278450 0.455902
vt 0.291059 0.359347
vt 0.231220 0.430145
vt 0.231313 0.239835
vt 0.648668 0.436537
vt 0.649194 0.641774
vt 0.647137 0.537250
vt 0.615189 0.646944
vt 0.647501 0.617236
vt 0.597222 0.545458
vt 0.571935 0.455860
vt 0.576059 0.360311
vt 0.647501 0.351937
vt 0.548426 0.307697
vt 0.560570 0.240799
vt 0.525883 0.264776
vt 0.647501 0.240777
vt 0.440802 0.264460
vt 0.362001 0.264167
vt 0.254566 0.551766
vt 0.231089 0.549173
vt 0.238451 0.647627
vt 0.231162 0.550280
vt 0.238470 0.647631
vt 0.231114 0.647857
vt 0.278714 0.455444
vt 0.362622 0.263278
vt 0.527632 0.239980
vt 0.526925 0.264010
vt 0.441039 0.263627
vt 0.648758 0.240039
vt 0.577159 0.359828
vt 0.618038 0.642671
vt 0.598222 0.545246
vt 0.605208 0.688473
vt 0.230991 0.158449
vt 0.647365 0.158344
vt 0.729933 0.646836
vt 0.729933 0.240777
vt 0.812366 0.326443
vt 0.148681 0.647878
vt 0.231114 0.647857
vt 0.148657 0.550551
vt 0.894798 0.320162
vt 0.729933 0.726154
vt 0.572954 0.455620
vt 0.600686 0.694072
vt 0.254698 0.551536
vt 0.360770 0.239899
vn 0.0000 -1.0000 -0.0000
vn -0.9919 0.1269 0.0000
vn -1.0000 0.0003 -0.0007
vn 0.8854 0.4648 0.0000
vn -0.0312 0.9995 0.0000
vn 1.0000 0.0000 0.0000
vn -0.8022 0.5970 0.0000
vn 0.9991 -0.0434 0.0000
vn 0.9625 0.2714 0.0000
vn 0.9557 -0.2944 0.0000
vn -0.9703 0.2420 0.0000
vn 0.0040 1.0000 0.0000
vn 0.9847 0.1741 0.0000
vn -0.9861 0.1660 0.0000
vn -0.7101 0.7041 0.0000
vn 0.0000 -0.0000 1.0000
vn 0.0000 0.0000 -1.0000
vn -0.0001 0.0000 -1.0000
vn -1.0000 0.0003 0.0000
vn -1.0000 -0.0000 -0.0004
vn -1.0000 -0.0000 -0.0010
vn -1.0000 0.0003 -0.0014
s off
f 45/1/1 44/2/1 39/3/1
f 29/4/2 18/5/2 17/6/2
f 34/7/3 46/8/3 35/9/3
f 23/10/4 10/11/4 38/12/4
f 3/13/5 13/14/5 7/15/5
f 9/16/6 4/17/6 43/18/6
f 30/19/7 12/20/7 18/5/7
f 23/10/8 2/21/8 10/11/8
f 20/22/9 8/23/9 2/21/9
f 16/24/10 27/25/10 15/26/10
f 31/27/11 17/6/11 19/28/11
f 12/20/12 32/29/12 21/30/12
f 22/31/13 16/24/13 8/23/13
f 25/32/14 19/28/14 13/14/14
f 26/33/12 21/30/12 32/34/12
f 27/35/15 11/36/15 15/37/15
f 18/38/16 40/39/16 17/40/16
f 30/41/17 43/42/17 4/43/17
f 46/44/18 1/45/18 48/46/18
f 16/47/16 11/36/16 33/48/16
f 8/49/16 33/48/16 34/7/16
f 2/50/16 34/7/16 35/9/16
f 10/51/16 35/9/16 36/52/16
f 38/53/16 37/54/16 14/55/16
f 38/53/16 36/52/16 6/56/16
f 21/57/16 37/54/16 39/3/16
f 12/58/16 9/16/16 18/38/16
f 40/39/16 19/59/16 17/40/16
f 41/60/16 13/61/16 19/59/16
f 42/62/17 25/63/17 3/64/17
f 29/65/17 42/62/17 43/42/17
f 4/43/17 24/66/17 30/41/17
f 45/67/17 26/68/17 32/69/17
f 5/70/17 26/68/17 45/67/17
f 46/44/17 23/71/17 5/70/17
f 48/46/17 28/72/17 22/73/17
f 28/72/17 1/45/17 27/74/17
f 44/2/1 4/75/1 39/3/1
f 4/75/1 9/16/1 39/3/1
f 39/3/1 37/54/1 45/1/1
f 37/54/1 6/56/1 5/76/1
f 45/1/1 37/54/1 5/76/1
f 29/4/2 30/19/2 18/5/2
f 33/48/19 11/36/19 1/77/19
f 1/77/20 46/8/20 34/7/20
f 46/8/21 5/78/21 36/52/21
f 1/77/19 34/7/19 33/48/19
f 5/78/22 6/56/22 36/52/22
f 36/52/3 35/9/3 46/8/3
f 38/12/4 14/79/4 26/33/4
f 26/33/4 23/10/4 38/12/4
f 3/13/5 25/32/5 13/14/5
f 3/80/6 7/81/6 42/82/6
f 7/81/6 41/60/6 42/82/6
f 41/60/6 40/39/6 42/82/6
f 40/39/6 9/16/6 43/18/6
f 42/82/6 40/39/6 43/18/6
f 30/19/7 24/83/7 12/20/7
f 23/10/8 20/22/8 2/21/8
f 20/22/9 22/31/9 8/23/9
f 16/24/10 28/84/10 27/25/10
f 31/27/11 29/4/11 17/6/11
f 12/20/12 24/83/12 32/29/12
f 22/31/13 28/84/13 16/24/13
f 25/32/14 31/27/14 19/28/14
f 26/33/12 14/79/12 21/30/12
f 27/35/15 1/77/15 11/36/15
f 18/38/16 9/16/16 40/39/16
f 30/41/17 29/65/17 43/42/17
f 22/73/17 20/85/17 48/46/17
f 20/85/17 46/44/17 48/46/17
f 16/47/16 15/86/16 11/36/16
f 8/49/16 16/47/16 33/48/16
f 2/50/16 8/49/16 34/7/16
f 10/51/16 2/50/16 35/9/16
f 38/53/16 6/56/16 37/54/16
f 38/53/16 10/51/16 36/52/16
f 39/3/16 12/58/16 21/57/16
f 21/57/16 14/55/16 37/54/16
f 12/58/16 39/3/16 9/16/16
f 40/39/16 41/60/16 19/59/16
f 41/60/16 7/81/16 13/61/16
f 42/62/17 31/87/17 25/63/17
f 29/65/17 31/87/17 42/62/17
f 4/43/17 44/88/17 24/66/17
f 32/69/17 24/66/17 44/88/17
f 44/88/17 45/67/17 32/69/17
f 5/70/17 23/71/17 26/68/17
f 46/44/17 20/85/17 23/71/17
f 48/46/17 1/45/17 28/72/17
l 47 48
