# Blender v2.79 (sub 0) OBJ File: 'Nemesis_Model_door.blend'
# www.blender.org
o Curve_CUpath32
v -0.459627 0.913343 -0.084130
v -0.446019 0.915705 -0.092130
v -0.457262 0.899680 -0.092130
v -0.465262 0.899663 -0.084130
v -0.261552 1.113102 -0.084130
v -0.247919 1.118783 -0.084130
v -0.252586 1.110783 -0.092130
v 0.252489 1.118742 -0.084130
v 0.266090 1.113029 -0.084130
v 0.257129 1.110741 -0.092130
v 0.465488 0.901710 -0.084130
v 0.457488 0.901692 -0.092130
v 0.446478 0.917668 -0.092130
v 0.459887 0.915422 -0.084130
v 0.457488 0.000000 -0.084130
v 0.457488 0.008000 -0.092130
v 0.465488 0.008000 -0.084130
v -0.457488 0.000000 -0.084130
v -0.465486 0.008000 -0.084130
v -0.457486 0.008000 -0.092130
v -0.457488 0.000000 0.084131
v -0.457486 0.008000 0.092131
v -0.465486 0.008000 0.084131
v 0.465488 0.901710 0.084131
v 0.459887 0.915422 0.084131
v 0.446478 0.917668 0.092131
v 0.457488 0.901692 0.092131
v -0.261552 1.113102 0.084131
v -0.252586 1.110783 0.092131
v -0.247919 1.118783 0.084131
v 0.457488 0.000000 0.084131
v 0.465488 0.008000 0.084131
v 0.457488 0.008000 0.092131
v 0.252489 1.118742 0.084131
v 0.257129 1.110741 0.092131
v 0.266090 1.113029 0.084131
v -0.459627 0.913343 0.084131
v -0.465262 0.899663 0.084131
v -0.457262 0.899680 0.092131
v -0.446019 0.915705 0.092131
vt 0.722699 0.217955
vt 0.312728 0.617519
vt 0.312661 0.217920
vt 0.630875 0.719303
vt 0.408453 0.794714
vt 0.406622 0.719301
vt 0.312661 0.217915
vt 0.722665 0.618450
vt 0.312728 0.617524
vt 0.638034 0.719297
vt 0.762100 0.793849
vt 0.639836 0.794712
vt 0.729869 0.217953
vt 0.805305 0.617598
vt 0.729838 0.618426
vt 0.722699 0.210784
vt 0.312667 0.135345
vt 0.722705 0.135379
vt 0.230153 0.617524
vt 0.305490 0.217921
vt 0.305557 0.617512
vt 0.717731 0.625614
vt 0.404444 0.712131
vt 0.317765 0.624701
vt 0.273338 0.794706
vt 0.399440 0.719301
vt 0.401241 0.794714
vt 0.269711 0.798291
vt 0.269711 0.794705
vt 0.404868 0.794714
vt 0.403439 0.798299
vt 0.632707 0.794731
vt 0.636292 0.794732
vt 0.634873 0.798318
vt 0.808893 0.617553
vt 0.805305 0.621177
vt 0.722706 0.131794
vt 0.726291 0.135380
vt 0.309082 0.135345
vt 0.312668 0.131760
vt 0.312660 0.210750
vt 0.312661 0.214335
vt 0.309075 0.210750
vt 0.729838 0.622009
vt 0.726250 0.618455
vt 0.401456 0.715716
vt 0.403037 0.719301
vt 0.726284 0.210785
vt 0.722699 0.214369
vt 0.632868 0.715716
vt 0.634460 0.719303
vt 0.273308 0.719301
vt 0.269711 0.715715
vt 0.278341 0.715715
vt 0.278471 0.798291
vt 0.805274 0.217956
vt 0.406449 0.798299
vt 0.226501 0.217935
vt 0.230086 0.217933
vt 0.717701 0.625595
vt 0.757262 0.797435
vt 0.637862 0.798307
vt 0.400426 0.713170
vt 0.311667 0.623642
vt 0.722665 0.618455
vt 0.632868 0.712131
vt 0.636884 0.713157
vt 0.269711 0.719301
vt 0.805274 0.214376
vt 0.632806 0.712154
vt 0.317736 0.624720
vt 0.722699 0.217960
vt 0.762009 0.719268
vt 0.808893 0.621138
vt 0.726250 0.622048
vt 0.808859 0.217954
vt 0.226567 0.617534
vt 0.723740 0.624608
vt 0.729869 0.214370
vt 0.404381 0.712108
vn 0.0000 -0.0000 1.0000
vn 0.0001 1.0000 0.0000
vn 0.0000 0.0000 -1.0000
vn 0.7140 0.7002 0.0000
vn 1.0000 0.0000 0.0000
vn 0.0000 -1.0000 -0.0000
vn -1.0000 0.0003 0.0000
vn -0.7101 0.7041 -0.0000
vn -0.6792 0.2797 -0.6786
vn -0.3153 0.7567 -0.5727
vn 0.3176 0.7562 -0.5721
vn 0.6791 0.2774 -0.6797
vn 0.5774 -0.5774 -0.5773
vn -0.5774 -0.5773 -0.5774
vn -0.5774 -0.5773 0.5774
vn 0.6791 0.2774 0.6797
vn -0.3153 0.7567 0.5727
vn 0.5774 -0.5774 0.5773
vn 0.3176 0.7562 0.5721
vn -0.5182 0.3636 0.7741
vn 0.0000 -0.7071 -0.7071
vn -0.5021 0.4979 -0.7071
vn 0.7071 0.0000 -0.7071
vn 0.0001 0.7071 -0.7071
vn -0.7071 0.0002 -0.7071
vn 0.0000 -0.7071 0.7071
vn 0.5048 0.4951 -0.7071
vn -0.5021 0.4979 0.7071
vn 0.7071 -0.0000 0.7071
vn 0.0001 0.7071 0.7071
vn -0.7071 0.0002 0.7071
vn 0.5048 0.4951 0.7071
vn -0.9246 0.3808 0.0000
vn -0.3846 0.9231 0.0000
vn -0.7072 -0.7070 -0.0000
vn 0.7071 -0.7071 -0.0000
vn 0.9257 0.3782 0.0000
vn 0.3872 0.9220 0.0000
vn -0.5182 0.3636 -0.7741
vn 0.5218 0.3596 -0.7736
vn 0.5218 0.3596 0.7736
vn -0.6792 0.2797 0.6786
s off
f 33/1/1 39/2/1 22/3/1
f 34/4/2 6/5/2 30/6/2
f 16/7/3 3/8/3 12/9/3
f 36/10/4 14/11/4 9/12/4
f 32/13/5 11/14/5 24/15/5
f 31/16/6 18/17/6 15/18/6
f 4/19/7 23/20/7 38/21/7
f 26/22/1 29/23/1 40/24/1
f 1/25/8 28/26/8 5/27/8
f 1/25/9 3/28/9 4/29/9
f 5/27/10 6/30/10 7/31/10
f 8/32/11 9/33/11 10/34/11
f 12/35/12 14/36/12 11/14/12
f 15/18/13 16/37/13 17/38/13
f 18/17/14 19/39/14 20/40/14
f 21/41/15 22/42/15 23/43/15
f 25/44/16 27/45/16 24/15/16
f 28/26/17 29/46/17 30/47/17
f 31/16/18 32/48/18 33/49/18
f 34/4/19 35/50/19 36/51/19
f 37/52/20 39/53/20 40/54/20
f 15/18/21 20/40/21 16/37/21
f 5/27/22 2/55/22 1/25/22
f 17/56/23 12/35/23 11/14/23
f 6/5/24 10/34/24 7/57/24
f 4/19/25 20/58/25 19/59/25
f 22/3/26 31/16/26 33/1/26
f 2/60/3 12/9/3 3/8/3
f 9/12/27 13/61/27 10/62/27
f 40/24/28 28/63/28 37/64/28
f 27/65/29 32/13/29 24/15/29
f 35/66/30 30/6/30 29/23/30
f 22/3/31 38/21/31 23/20/31
f 27/65/1 40/24/1 39/2/1
f 26/22/32 36/67/32 35/66/32
f 1/25/33 38/68/33 37/52/33
f 28/26/34 6/5/34 5/27/34
f 21/41/35 19/39/35 18/17/35
f 32/13/36 15/69/36 17/56/36
f 11/14/37 25/44/37 24/15/37
f 34/4/38 9/12/38 8/32/38
f 7/70/3 13/71/3 2/60/3
f 33/1/1 27/65/1 39/2/1
f 34/4/2 8/32/2 6/5/2
f 16/7/3 20/72/3 3/8/3
f 36/10/4 25/73/4 14/11/4
f 32/13/5 17/56/5 11/14/5
f 31/16/6 21/41/6 18/17/6
f 4/19/7 19/59/7 23/20/7
f 26/22/1 35/66/1 29/23/1
f 1/25/8 37/52/8 28/26/8
f 1/25/39 2/55/39 3/28/39
f 12/35/40 13/74/40 14/36/40
f 25/44/41 26/75/41 27/45/41
f 37/52/42 38/68/42 39/53/42
f 15/18/21 18/17/21 20/40/21
f 5/27/22 7/31/22 2/55/22
f 17/56/23 16/76/23 12/35/23
f 6/5/24 8/32/24 10/34/24
f 4/19/25 3/77/25 20/58/25
f 22/3/26 21/41/26 31/16/26
f 2/60/3 13/71/3 12/9/3
f 9/12/27 14/11/27 13/61/27
f 40/24/28 29/23/28 28/63/28
f 27/65/29 33/1/29 32/13/29
f 35/66/30 34/4/30 30/6/30
f 22/3/31 39/2/31 38/21/31
f 27/65/1 26/22/1 40/24/1
f 26/22/32 25/78/32 36/67/32
f 1/25/33 4/29/33 38/68/33
f 28/26/34 30/6/34 6/5/34
f 21/41/35 23/43/35 19/39/35
f 32/13/36 31/79/36 15/69/36
f 11/14/37 14/36/37 25/44/37
f 34/4/38 36/10/38 9/12/38
f 7/70/3 10/80/3 13/71/3
