<svg width="90" height="90" viewBox="0 0 90 90" fill="none" xmlns="http://www.w3.org/2000/svg">
<path fill-rule="evenodd" clip-rule="evenodd" d="M34.6637 0.89502C15.5227 0.89502 0.0117188 16.411 0.0117188 35.547C0.0117188 54.688 15.5237 70.203 34.6637 70.203C42.0856 70.203 48.9647 67.8671 54.6047 63.8905L78.9757 88.2655C81.296 90.5819 85.0577 90.5819 87.378 88.2655C89.6983 85.9452 89.6983 82.1835 87.378 79.8632L63.007 55.4922C66.9797 49.8516 69.3156 42.9722 69.3156 35.5472C69.3156 16.4102 53.7997 0.89502 34.6637 0.89502ZM11.8907 35.547C11.8907 22.973 22.0857 12.777 34.6637 12.777C47.2417 12.777 57.4367 22.972 57.4367 35.547C57.4367 48.125 47.2417 58.32 34.6637 58.32C22.0857 58.32 11.8907 48.125 11.8907 35.547Z" fill="white"/>
</svg>
